<svg xmlns="http://www.w3.org/2000/svg" width="375" height="58" viewBox="0 0 375 58" fill="none"><path d="M3.39996 47.754V34.3859C3.39996 31.9905 2.31815 29.9042 0 29.9042V26.6588C2.24088 26.6588 3.39996 24.5724 3.39996 22.177V8.809C3.39996 3.39998 7.41809 0 11.5135 0H15.4544V3.55451H11.5135C9.19534 3.55451 7.18628 5.71813 7.18628 8.73173V22.4861C7.18628 25.1906 6.33629 27.2769 4.17268 28.2042C6.33629 29.1315 7.18628 31.2178 7.18628 33.9223V47.6767C7.18628 50.6903 9.11807 52.8539 11.5135 52.8539H15.4544V56.4084H11.5135C7.41809 56.4084 3.39996 53.0085 3.39996 47.6767V47.754Z" fill="#B382BA"></path><path d="M25.4224 12.6724H30.2905V17.7723C32.8405 14.4496 36.4722 12.0542 40.7994 12.0542V17.0769C40.1813 16.9223 39.6404 16.8451 38.8677 16.8451C35.8541 16.8451 31.7587 19.3178 30.3678 21.8677V44.122H25.4996V12.6724H25.4224Z" fill="#B382BA"></path><path d="M60.5039 11.8999C70.0083 11.8999 75.5719 19.318 75.5719 28.7451V29.9815H50.1495C50.5359 35.9314 54.7085 40.8768 61.4312 40.8768C68.1538 40.8768 68.6175 39.4087 71.0902 36.936L73.4083 40.1041C70.3174 43.195 66.0675 44.8949 60.8903 44.8949C51.6177 44.8949 44.895 38.1723 44.895 28.3588C44.895 18.5453 51.3858 11.8999 60.3494 11.8999H60.5039ZM50.1495 26.427H70.7811C70.7811 21.7134 67.6129 15.918 60.4266 15.918C53.2404 15.918 50.3813 21.5589 50.1495 26.427Z" fill="#B382BA"></path><path d="M83.4536 56.0992V12.7498H88.3217V17.4634C90.5626 14.2952 94.5035 11.9771 98.908 11.9771C107.176 11.9771 112.894 18.2361 112.894 28.436C112.894 38.6358 107.176 44.9721 98.908 44.9721C90.6399 44.9721 90.8717 42.963 88.3217 39.4085V56.0992H83.4536ZM97.6716 16.3043C93.808 16.3043 90.0217 18.5452 88.3217 21.3269V35.5449C90.0217 38.2495 93.8853 40.6449 97.6716 40.6449C104.008 40.6449 107.717 35.4677 107.717 28.5132C107.717 21.5588 103.931 16.3816 97.6716 16.3816V16.3043Z" fill="white"></path><path d="M120.776 12.6724H125.644V17.7723C128.194 14.4496 131.826 12.0542 136.153 12.0542V17.0769C135.535 16.9223 134.994 16.8451 134.221 16.8451C131.208 16.8451 127.112 19.3178 125.721 21.8677V44.122H120.853V12.6724H120.776Z" fill="white"></path><path d="M140.48 28.3588C140.48 19.2407 146.43 11.8999 156.012 11.8999C165.594 11.8999 171.543 19.2407 171.543 28.3588C171.543 37.4769 165.594 44.8949 156.012 44.8949C146.43 44.8949 140.48 37.4769 140.48 28.3588ZM166.444 28.3588C166.444 21.9452 162.734 16.2271 156.012 16.2271C149.289 16.2271 145.503 21.9452 145.503 28.3588C145.503 34.7723 149.289 40.4905 156.012 40.4905C162.734 40.4905 166.444 34.7723 166.444 28.3588Z" fill="white"></path><path d="M181.898 48.5266C184.525 51.6175 187.616 52.8538 192.098 52.8538C196.579 52.8538 202.143 50.3039 202.143 43.4267V38.9449C199.902 42.1131 196.038 44.5085 191.634 44.5085C183.443 44.5085 177.648 38.404 177.648 28.2814C177.648 18.1588 183.366 11.9771 191.634 11.9771C199.902 11.9771 199.67 14.0634 202.143 17.5406V12.827H207.011V43.3494C207.011 53.7811 199.747 57.0265 192.02 57.0265C184.293 57.0265 183.057 56.022 179.348 52.3129L181.82 48.6811L181.898 48.5266ZM202.22 21.3269C200.52 18.6224 196.734 16.227 192.87 16.227C186.534 16.227 182.825 21.2497 182.825 28.2041C182.825 35.1586 186.611 40.1813 192.87 40.1813C199.129 40.1813 200.52 37.7858 202.22 35.0041V21.2497V21.3269Z" fill="white"></path><path d="M216.825 12.6724H221.693V17.7723C224.243 14.4496 227.875 12.0542 232.202 12.0542V17.0769C231.584 16.9223 231.043 16.8451 230.27 16.8451C227.256 16.8451 223.161 19.3178 221.77 21.8677V44.122H216.902V12.6724H216.825Z" fill="white"></path><path d="M257.933 40.4906C255.306 43.3496 251.751 44.8178 247.501 44.8178C243.251 44.8178 236.529 41.2633 236.529 34.3861C236.529 27.5089 242.17 24.0317 247.501 24.0317C252.833 24.0317 255.383 25.4226 257.933 28.3589V22.7181C257.933 18.4681 254.533 16.0727 249.974 16.0727C245.415 16.0727 243.174 17.4636 240.315 20.3999L238.074 16.9999C241.474 13.5227 245.492 11.8228 250.592 11.8228C255.692 11.8228 262.724 14.8363 262.724 22.409V43.9678H257.856V40.4133L257.933 40.4906ZM257.933 31.5271C256.079 28.8998 252.756 27.5862 249.279 27.5862C245.801 27.5862 241.551 30.4452 241.551 34.4634C241.551 38.4815 244.72 41.2633 249.279 41.2633C253.838 41.2633 256.079 39.9497 257.933 37.3224V31.3725V31.5271Z" fill="white"></path><path d="M310.478 22.7952C310.478 18.8543 308.701 16.3044 304.683 16.3044C300.665 16.3044 297.96 18.6225 296.337 21.0952V44.1222H291.469V22.7952C291.469 18.8543 289.769 16.3044 285.674 16.3044C281.578 16.3044 279.106 18.6225 277.406 21.1725V44.1222H272.538V12.6726H277.406V17.2317C278.719 15.2226 282.969 11.8999 287.528 11.8999C292.087 11.8999 295.101 14.5271 295.951 17.7725C297.728 14.9135 301.901 11.8999 306.46 11.8999C311.019 11.8999 315.269 15.068 315.269 21.4043V44.1222H310.401V22.7952H310.478Z" fill="white"></path><path d="M344.787 40.4906C342.159 43.3496 338.605 44.8178 334.355 44.8178C330.105 44.8178 323.382 41.2633 323.382 34.3861C323.382 27.5089 329.023 24.0317 334.355 24.0317C339.687 24.0317 342.237 25.4226 344.787 28.3589V22.7181C344.787 18.4681 341.387 16.0727 336.828 16.0727C332.269 16.0727 330.028 17.4636 327.169 20.3999L324.928 16.9999C328.328 13.5227 332.346 11.8228 337.446 11.8228C342.546 11.8228 349.577 14.8363 349.577 22.409V43.9678H344.709V40.4133L344.787 40.4906ZM344.787 31.5271C342.932 28.8998 339.609 27.5862 336.132 27.5862C332.655 27.5862 328.405 30.4452 328.405 34.4634C328.405 38.4815 331.573 41.2633 336.132 41.2633C340.691 41.2633 342.932 39.9497 344.787 37.3224V31.3725V31.5271Z" fill="white"></path><path d="M363.487 52.8539C365.805 52.8539 367.814 50.613 367.814 47.6767V33.9223C367.814 31.2178 368.664 29.1315 370.827 28.2042C368.664 27.2769 367.814 25.1906 367.814 22.4861V8.73173C367.814 5.64085 365.882 3.55451 363.487 3.55451H359.546V0H363.487C367.659 0 371.6 3.39998 371.6 8.809V22.177C371.6 24.5724 372.682 26.6588 375 26.6588V29.9042C372.759 29.9042 371.6 31.9905 371.6 34.3859V47.754C371.6 53.0857 367.659 56.4857 363.487 56.4857H359.546V52.9312H363.487V52.8539Z" fill="#B382BA"></path></svg>